<?xml version="1.0" encoding="utf-8"?>
<!-- Generator: Adobe Illustrator 21.1.0, SVG Export Plug-In . SVG Version: 6.00 Build 0)  -->
<svg version="1.1" id="Layer_1" xmlns="http://www.w3.org/2000/svg" xmlns:xlink="http://www.w3.org/1999/xlink" x="0px" y="0px"
	 viewBox="0 0 198 214" style="enable-background:new 0 0 198 214;" xml:space="preserve">
<style type="text/css">
	.st0{fill:#F2AD00;}
</style>
<g>
	<path class="st0" d="M31.2,36.5v12.9c0,0.2-0.1,0.4-0.5,0.4h-27c-0.4,0-0.5-0.1-0.5-0.3c0-0.3,0.1-0.4,0.5-0.4h3
		c0.5,0,0.6-0.8,0.6-2.7v-36c0-1.9-0.1-2.7-0.6-2.7h-3c-0.4,0-0.5-0.1-0.5-0.3C3.1,7.1,3.2,7,3.6,7h25c0.4,0,0.5,0.1,0.5,0.4v12.4
		c0,0.4-0.2,0.5-0.4,0.5c-0.2,0-0.4-0.1-0.4-0.5v-0.6c0-6.7-2.5-11.6-8.4-11.6h-6.7c-0.4,0-0.6,0.1-0.6,0.4v18.7
		c0,0.2,0.1,0.3,0.5,0.3h4.4c3.1,0,5.4-2.2,5.4-5.6v-0.5c0-0.4,0.1-0.5,0.4-0.5c0.2,0,0.4,0.1,0.4,0.5v13c0,0.4-0.1,0.5-0.4,0.5
		c-0.2,0-0.4-0.1-0.4-0.5v-0.5c0-3.5-2.3-5.7-5.4-5.7h-4.3c-0.4,0-0.6,0.1-0.6,0.4v20.6c0,0.2,0.1,0.4,0.5,0.4h6.4
		c8.8,0,10.8-7.4,10.8-12v-0.5c0-0.4,0.1-0.5,0.4-0.5C31,35.9,31.2,36.1,31.2,36.5"/>
	<path class="st0" d="M52.5,44.8v-9.6c-5.8,2.3-8.6,2.5-9,7.4c-0.1,1.1-0.1,2.8,0.1,3.9c0.2,1.4,0.6,3.3,3.3,3.3
		C49.9,49.8,52.5,47,52.5,44.8 M61.1,47.9c-0.4,1-1.8,2.6-4.6,2.6c-2.2,0-3.8-1.3-3.9-3.4h-0.1c-1.8,2.7-4.1,3.4-6.8,3.4
		c-5.1,0-7.4-3.1-7.4-6.5c0-4,2.3-5.7,5-6.4c1.4-0.4,4.4-1.1,5.9-1.7c2.3-0.8,3.2-1.1,3.2-2.6v-3.4c0-4.9-2.1-5.6-4.7-5.6
		c-3.5,0-4.4,1.2-4.4,2.1c0,1.1,1.6,1.2,1.6,3.2c0,1.6-1.3,2.5-2.7,2.5c-1.6,0-2.7-1.2-2.7-2.8c0-3.3,4.3-5.6,8-5.6
		c5.3,0,9.3,2.8,9.3,8.5v15.6c0,1,0.2,1.8,1.3,1.8c0.8,0,1.8-0.7,2.2-1.7c0.1-0.3,0.2-0.4,0.5-0.3C61.2,47.5,61.2,47.6,61.1,47.9"/>
	<path class="st0" d="M76.4,49.7H64.9c-0.4,0-0.5-0.1-0.5-0.3c0-0.2,0.1-0.3,0.5-0.3h2.7c0.5,0,0.5-0.7,0.5-2.4V27.2
		c0-1.7-0.1-2.3-0.5-2.3h-2.7c-0.4,0-0.5-0.1-0.5-0.3c0-0.2,0.1-0.3,0.5-0.3h7.1c0.4,0,0.5,0.1,0.5,0.3V27h0.1
		c1.2-2.2,3.4-3.5,5.8-3.5c2.4,0,4.8,1.4,4.8,4.1c0,1.7-1.2,3-2.9,3c-1.5,0-2.8-1.1-2.8-2.7c0-1.6,1.2-1.8,1.2-2.7
		c0-0.7-0.5-1-1.1-1c-2.5,0-5,2.6-5,5v17.5c0,1.7,0.1,2.4,0.5,2.4h3.3c0.4,0,0.5,0.1,0.5,0.3C76.8,49.7,76.7,49.7,76.4,49.7"/>
	<path class="st0" d="M89,49.1h-2.7c-0.4,0-0.5,0.1-0.5,0.3c0,0.2,0.1,0.3,0.5,0.3h10.9c0.4,0,0.5-0.1,0.5-0.3
		c0-0.2-0.1-0.3-0.5-0.3h-2.7c-0.5,0-0.5-0.7-0.5-2.4V7.3C94,7.2,94,7,93.5,7h-7.2c-0.4,0-0.5,0.1-0.5,0.3c0,0.2,0.1,0.3,0.5,0.3H89
		c0.5,0,0.5,0.6,0.5,2.3v36.8C89.6,48.5,89.5,49.1,89,49.1"/>
	<path class="st0" d="M100,24.9h0.6c0.7,0,1,0.4,1.8,2.4l8.8,22c0.4,1,0.8,1.8,0.8,2.4v12.3c0,2.1-1.5,3.6-3.5,3.6
		c-1.3,0-2.4-0.5-2.4-1.5c0-1.1,1.3-1.1,1.3-3.1c0-1.5-1.2-2.6-2.7-2.6c-1.6,0-2.7,1.3-2.7,2.9c0,2.9,3.2,4.9,5.9,4.9
		c2.7,0,4.7-1.8,4.7-4.5V51.6c0-0.6,0.4-1.5,0.7-2.4l6.2-16c0.4-1.1,1.3-3.4,1.9-4.9c1.1-2.5,1.5-3.4,3.1-3.4c0.4,0,0.5-0.1,0.5-0.3
		c0-0.2-0.1-0.3-0.5-0.3h-8.5c-0.4,0-0.5,0.1-0.5,0.3c0,0.2,0.1,0.3,0.5,0.3h1.1c1.8,0,2.7,1,2.7,2.8c0,1.8-0.6,4.1-1.3,5.8
		l-4.5,11.7h-0.1l-6.8-18c-0.7-1.9-0.4-2.4,0.4-2.4h1.9c0.4,0,0.5-0.1,0.5-0.3c0-0.2-0.1-0.3-0.5-0.3H100c-0.4,0-0.5,0.1-0.5,0.3
		C99.6,24.8,99.7,24.9,100,24.9"/>
	<path class="st0" d="M42.2,102.6H29.6c-0.4,0-0.5-0.1-0.5-0.3c0-0.3,0.1-0.4,0.5-0.4h3c0.5,0,0.6-0.8,0.6-2.7V62.2h-0.1l-10.7,40.6
		c-0.1,0.5-0.2,0.6-0.6,0.6h-0.6c-0.4,0-0.5-0.2-0.6-0.5L7.9,62.2H7.8v25.8c0,11.7,1.1,14,5.3,14h0.5c0.4,0,0.5,0.1,0.5,0.3
		c0,0.3-0.1,0.4-0.5,0.4H3.3c-0.4,0-0.5-0.1-0.5-0.4c0-0.2,0.2-0.3,0.5-0.3h0.1c2.8,0,3.7-2,3.7-13.6V63.3c0-1.9-0.1-2.7-0.6-2.7h-3
		c-0.4,0-0.5-0.1-0.5-0.3c0-0.3,0.1-0.4,0.5-0.4h8.9c0.4,0,0.6,0.1,0.7,0.5l10.5,34.8h0.1l9.1-34.8c0.1-0.4,0.3-0.5,0.7-0.5h8.8
		c0.4,0,0.5,0.1,0.5,0.4c0,0.2-0.2,0.3-0.5,0.3h-3c-0.5,0-0.6,0.8-0.6,2.7v36c0,1.9,0.1,2.7,0.6,2.7h3c0.4,0,0.5,0.1,0.5,0.3
		C42.8,102.6,42.6,102.6,42.2,102.6"/>
	<path class="st0" d="M72.6,102.6h-7.1c-0.4,0-0.5-0.1-0.5-0.3v-2.5h-0.1c-1,1.6-2.7,3.5-6.6,3.5c-3.9,0-9-2.4-9-9.4V80.1
		c0-1.7-0.1-2.4-0.5-2.4h-2.7c-0.4,0-0.5-0.1-0.5-0.3c0-0.2,0.1-0.3,0.5-0.3h7.2c0.4,0,0.5,0.1,0.5,0.3v19.8c0,5,3.5,5.5,5.3,5.5
		c4.2,0,5.8-3.7,5.8-5.1V80.1c0-1.7-0.1-2.4-0.5-2.4h-2.7c-0.4,0-0.5-0.1-0.5-0.3c0-0.2,0.1-0.3,0.5-0.3h7.2c0.4,0,0.5,0.1,0.5,0.3
		v22.3c0,1.7,0.1,2.3,0.5,2.3h2.7c0.4,0,0.5,0.1,0.5,0.3C73.1,102.6,73,102.6,72.6,102.6"/>
	<path class="st0" d="M94.7,95.9c0-9-13.2-7.4-13.2-14.9c0-1.8,1.1-3.9,4.1-3.9c3.3,0,6.1,2.7,6.1,7.7v0.5c0,0.4,0.1,0.5,0.4,0.5
		c0.2,0,0.3-0.1,0.3-0.5v-8c0-0.4-0.1-0.5-0.3-0.5c-0.2,0-0.4,0.1-0.4,0.5v0.2c0,0.7-0.8,0.3-1.6,0c-1.5-0.7-2.9-1-4.4-1
		c-5.3,0-7.3,4.2-7.3,7.1c0,8.9,13.1,7.4,13.1,14.9c0,2.4-1.8,4.3-5.3,4.3c-3.6,0-7.2-2.8-7.2-8.3v-0.9c0-0.4-0.1-0.5-0.4-0.5
		c-0.2,0-0.3,0.2-0.3,0.5v8.9c0,0.4,0.1,0.5,0.3,0.5c0.2,0,0.4-0.2,0.4-0.5v-0.1c0-0.6,0.8-0.4,1.5-0.1c1.8,0.7,3.9,1,5.8,1
		C91.3,103.4,94.7,99.7,94.7,95.9"/>
	<path class="st0" d="M112.4,102.3l0,0.2C112.3,102.4,112.4,102.4,112.4,102.3C112.4,102.3,112.4,102.3,112.4,102.3"/>
	<path class="st0" d="M110.2,102h-2.7c-0.5,0-0.5-0.7-0.5-2.4V77.5c0-0.2-0.1-0.3-0.5-0.3h-7.2c-0.4,0-0.5,0.1-0.5,0.3
		c0,0.2,0.1,0.3,0.5,0.3h2.7c0.5,0,0.5,0.6,0.5,2.3v19.6c0,1.7-0.1,2.4-0.5,2.4h-2.7c-0.4,0-0.5,0.1-0.5,0.3c0,0.2,0.1,0.3,0.5,0.3
		h10.9c0.3,0,0.4-0.1,0.4-0.2l0-0.2C110.7,102.1,110.5,102,110.2,102"/>
	<path class="st0" d="M134.5,92.7c-0.5,0-0.5,0.2-0.5,1c0,5.6-3.6,9-7.7,9c-4.4,0-6-3.7-6.3-7.1c-0.4-3.5-0.4-7.6,0-11.1
		c0.5-4.8,1.4-7.4,5.7-7.4c2.3,0,4.2,0.7,4.2,2.2c0,1.3-1.5,1.3-1.5,3.5c0,1.7,1.3,2.8,2.9,2.8c1.7,0,2.9-1.3,2.9-3.1
		c0-3.8-4.4-6-8.5-6c-8.9,0-11.5,7.3-11.5,13.5c0,7.6,3.9,13.4,11.7,13.4c6.7,0,9.1-5.7,9.1-10C134.9,93,134.8,92.7,134.5,92.7"/>
	<path class="st0" d="M7.6,154.6c-1.4-0.5-2.7-1-2.7,0.1v0.4c0,0.5-0.2,0.6-0.4,0.6c-0.2,0-0.4-0.1-0.4-0.6v-14.8
		c0-0.4,0.1-0.5,0.4-0.5c0.2,0,0.4,0.1,0.4,0.5v0.5c0,6,2.5,14.9,11.2,14.9c6,0,9.1-3.3,9.1-8c0-12.3-20.8-10.2-20.8-24
		c0-5.9,4.2-11.6,11.4-11.6c2.4,0,4.5,0.7,6.7,1.6c1,0.4,2.4,1.1,2.4,0v-0.5c0-0.4,0.1-0.5,0.4-0.5c0.2,0,0.4,0.1,0.4,0.5v13.1
		c0,0.4-0.2,0.5-0.4,0.5c-0.2,0-0.4-0.1-0.4-0.5v-0.5c0-7.9-3-13.1-9.4-13.1c-4,0-6.9,2.4-6.9,7.1c0,12.9,21,10.3,21,24.4
		c0,6.7-5.7,12.1-13.5,12.1C12.4,156.3,9.8,155.4,7.6,154.6"/>
	<path class="st0" d="M45.9,130c-3.7,0-4.8,3.3-5.1,7.6c-0.1,0.9-0.1,1.7-0.1,2.3c0,0.4,0.2,0.4,0.4,0.4h9.4c0.2,0,0.5-0.1,0.5-0.5
		c0-1.6-0.1-3.6-0.5-5.3C49.8,131.8,48.5,130,45.9,130 M35,142.9c0-7,3.3-13.5,10.9-13.5c5.5,0,10.2,3.4,10.2,9.3
		c0,1.8-0.5,2.4-1.8,2.4H41c-0.2,0-0.4,0-0.4,0.4c-0.1,2.4,0,4.9,0.2,7.1c0.4,3.3,1.9,7.1,6.7,7.1c4.5,0,8-3.4,8-9
		c0-0.7,0.1-1,0.5-1c0.3,0,0.4,0.2,0.4,0.7c0,4.3-2.3,10-9.4,10C38.7,156.3,35,150.5,35,142.9"/>
	<path class="st0" d="M76,150.6V141c-5.8,2.3-8.6,2.5-9,7.4c-0.1,1.1-0.1,2.8,0.1,3.9c0.2,1.4,0.6,3.3,3.3,3.3
		C73.4,155.6,76,152.8,76,150.6 M84.6,153.7c-0.4,1-1.8,2.6-4.6,2.6c-2.2,0-3.8-1.3-3.9-3.4H76c-1.8,2.7-4.1,3.4-6.8,3.4
		c-5.1,0-7.4-3.1-7.4-6.5c0-4,2.3-5.7,5-6.4c1.4-0.4,4.4-1.1,5.9-1.7c2.3-0.8,3.2-1.1,3.2-2.6v-3.4c0-4.9-2.1-5.6-4.7-5.6
		c-3.5,0-4.4,1.2-4.4,2.1c0,1.1,1.6,1.2,1.6,3.2c0,1.6-1.3,2.5-2.7,2.5c-1.6,0-2.7-1.2-2.7-2.8c0-3.3,4.3-5.6,8-5.6
		c5.3,0,9.3,2.8,9.3,8.5v15.6c0,1,0.2,1.8,1.3,1.8c0.8,0,1.8-0.7,2.2-1.7c0.1-0.3,0.2-0.4,0.5-0.3C84.7,153.3,84.7,153.4,84.6,153.7
		"/>
	<path class="st0" d="M87.3,130.8h1.8c0.5,0,0.6,0.2,0.6,0.4v18.4c0,3.6,1.9,6.6,6,6.6c3.1,0,4.8-1.6,4.8-5c0-0.5-0.1-0.6-0.4-0.6
		c-0.4,0-0.4,0.2-0.4,0.8c0,2.5-1.3,4-3.1,4c-2,0-2.4-1.3-2.4-3.8v-20.5c0-0.2,0.1-0.4,0.6-0.4h4.5c0.4,0,0.6-0.1,0.6-0.4
		c0-0.2-0.1-0.4-0.6-0.4h-4.5c-0.5,0-0.6-0.2-0.6-0.4v-9.2c0-0.4-0.1-0.5-0.4-0.5c-0.3,0-0.4,0.2-0.5,0.4c-0.6,1-2.1,2.4-3.1,3
		c-0.4,0.2-0.5,0.4-0.5,0.8v5.5c0,0.2-0.1,0.4-0.6,0.4h-1.8c-0.4,0-0.6,0.1-0.6,0.4C86.7,130.7,86.8,130.8,87.3,130.8"/>
	<path class="st0" d="M106,130.1h-1.8c-0.4,0-0.6,0.1-0.6,0.4c0,0.2,0.1,0.4,0.6,0.4h1.7l0.2-0.7C106,130.1,106,130.1,106,130.1"/>
	<path class="st0" d="M117,150.7c-0.4,0-0.4,0.2-0.4,0.8c0,2.5-1.3,4-3.1,4c-2,0-2.4-1.3-2.4-3.8v-20.5c0-0.2,0.1-0.4,0.6-0.4h4.5
		c0.4,0,0.6-0.1,0.6-0.4c0-0.2-0.1-0.4-0.6-0.4h-4.5c-0.5,0-0.6-0.2-0.6-0.4v-9.2c0-0.4-0.1-0.5-0.4-0.5c-0.3,0-0.4,0.2-0.5,0.4
		c-0.5,0.8-1.5,1.9-2.5,2.6l-1.1,4.9v1.9c0,0.2-0.1,0.3-0.5,0.4l-0.2,0.7h0.1c0.5,0,0.6,0.2,0.6,0.4v18.4c0,3.6,1.9,6.6,6,6.6
		c3.1,0,4.8-1.6,4.8-5C117.3,150.8,117.2,150.7,117,150.7"/>
	<path class="st0" d="M107,123.4c-0.4,0.2-0.5,0.4-0.5,0.8v3.6l1.1-4.9C107.5,123.1,107.2,123.3,107,123.4"/>
	<path class="st0" d="M132.4,154.9h-2.7c-0.5,0-0.5-0.7-0.5-2.4v-39.4c0-0.2-0.1-0.3-0.5-0.3h-7.2c-0.4,0-0.5,0.1-0.5,0.3
		s0.1,0.3,0.5,0.3h2.7c0.5,0,0.5,0.6,0.5,2.3v36.8c0,1.7-0.1,2.4-0.5,2.4h-2.7c-0.4,0-0.5,0.1-0.5,0.3c0,0.2,0.1,0.3,0.5,0.3h10.9
		c0.4,0,0.5-0.1,0.5-0.3C132.9,155,132.8,154.9,132.4,154.9"/>
	<path class="st0" d="M148,130c-3.7,0-4.8,3.3-5.1,7.6c-0.1,0.9-0.1,1.7-0.1,2.3c0,0.4,0.2,0.4,0.4,0.4h9.4c0.2,0,0.5-0.1,0.5-0.5
		c0-1.6-0.1-3.6-0.5-5.3C152,131.8,150.6,130,148,130 M137.1,142.9c0-7,3.3-13.5,10.9-13.5c5.5,0,10.2,3.4,10.2,9.3
		c0,1.8-0.5,2.4-1.8,2.4h-13.4c-0.2,0-0.4,0-0.4,0.4c-0.1,2.4,0,4.9,0.2,7.1c0.4,3.3,1.9,7.1,6.7,7.1c4.5,0,8-3.4,8-9
		c0-0.7,0.1-1,0.5-1c0.3,0,0.4,0.2,0.4,0.7c0,4.3-2.3,10-9.4,10C140.8,156.3,137.1,150.5,137.1,142.9"/>
	<path class="st0" d="M190.5,179.9c3.5,4.9,2.9,6.9,1.8,7.2c-1.4,0.5-2.5-0.8-3.6-4.1c-1.1-3.5-2.8-8.3-2.8-8.3
		S188.7,177.4,190.5,179.9 M196.1,184.1c-0.6-2.2-2.1-6.8-11.3-14.5L132.5,1.3l-0.3,0.9l49.4,165.6c-4-2.1-9.5-3.3-14.8-3.3
		c-16.2,0-29.4,13.3-37.8,20.4c-13,13-36,20.1-49,6.5v16.9c0,0,27.5,13.2,52.7-14.9c9.3-10.4,20.8-24.7,34.7-24.7
		c6.5,0,11.7,1.6,15.1,3.9l3.1,10.1c2.6,9.9,6.6,9.3,7.9,8.8C196.6,190,196.7,186.5,196.1,184.1"/>
</g>
</svg>
